{
    "asset" : {
        "generator" : "Khronos glTF Blender I/O v1.8.19",
        "version" : "2.0"
    },
    "scene" : 0,
    "scenes" : [
        {
            "name" : "Scene",
            "nodes" : [
                0,
                1,
                2
            ]
        }
    ],
    "nodes" : [
        {
            "mesh" : 0,
            "name" : "Circle",
            "translation" : [
                0,
                5.344193935394287,
                0
            ]
        },
        {
            "name" : "Empty",
            "rotation" : [
                0,
                0.3412001132965088,
                0,
                0.9399906992912292
            ]
        },
        {
            "mesh" : 1,
            "name" : "Circle.002",
            "translation" : [
                0,
                4.576786994934082,
                0
            ]
        }
    ],
    "materials" : [
        {
            "doubleSided" : true,
            "name" : "Material.003",
            "pbrMetallicRoughness" : {
                "metallicFactor" : 0,
                "roughnessFactor" : 0.5
            }
        },
        {
            "doubleSided" : true,
            "name" : "Material.001",
            "pbrMetallicRoughness" : {
                "baseColorFactor" : [
                    0.24979782104492188,
                    0.6071429252624512,
                    0,
                    1
                ],
                "metallicFactor" : 0,
                "roughnessFactor" : 0.5
            }
        },
        {
            "doubleSided" : true,
            "name" : "Material.002",
            "pbrMetallicRoughness" : {
                "baseColorFactor" : [
                    0.9857181906700134,
                    0.752655029296875,
                    0,
                    1
                ],
                "metallicFactor" : 0,
                "roughnessFactor" : 0.5
            }
        }
    ],
    "meshes" : [
        {
            "name" : "Circle",
            "primitives" : [
                {
                    "attributes" : {
                        "POSITION" : 0,
                        "NORMAL" : 1,
                        "TEXCOORD_0" : 2
                    },
                    "indices" : 3,
                    "material" : 0
                }
            ]
        },
        {
            "name" : "Circle.002",
            "primitives" : [
                {
                    "attributes" : {
                        "POSITION" : 4,
                        "NORMAL" : 5,
                        "TEXCOORD_0" : 6
                    },
                    "indices" : 7,
                    "material" : 1
                },
                {
                    "attributes" : {
                        "POSITION" : 8,
                        "NORMAL" : 9,
                        "TEXCOORD_0" : 10
                    },
                    "indices" : 11,
                    "material" : 2
                }
            ]
        }
    ],
    "accessors" : [
        {
            "bufferView" : 0,
            "componentType" : 5126,
            "count" : 1188,
            "max" : [
                3.9148361682891846,
                0.8771332502365112,
                4.082245826721191
            ],
            "min" : [
                -4.1495256423950195,
                -0.745389997959137,
                -4.096532821655273
            ],
            "type" : "VEC3"
        },
        {
            "bufferView" : 1,
            "componentType" : 5126,
            "count" : 1188,
            "type" : "VEC3"
        },
        {
            "bufferView" : 2,
            "componentType" : 5126,
            "count" : 1188,
            "type" : "VEC2"
        },
        {
            "bufferView" : 3,
            "componentType" : 5123,
            "count" : 1620,
            "type" : "SCALAR"
        },
        {
            "bufferView" : 4,
            "componentType" : 5126,
            "count" : 848,
            "max" : [
                0.7664843797683716,
                0.3178330063819885,
                0.6486578583717346
            ],
            "min" : [
                -0.5059474110603333,
                -7.403767108917236,
                -0.607036828994751
            ],
            "type" : "VEC3"
        },
        {
            "bufferView" : 5,
            "componentType" : 5126,
            "count" : 848,
            "type" : "VEC3"
        },
        {
            "bufferView" : 6,
            "componentType" : 5126,
            "count" : 848,
            "type" : "VEC2"
        },
        {
            "bufferView" : 7,
            "componentType" : 5123,
            "count" : 1290,
            "type" : "SCALAR"
        },
        {
            "bufferView" : 8,
            "componentType" : 5126,
            "count" : 80,
            "max" : [
                0.4661557674407959,
                0.41837289929389954,
                0.6457330584526062
            ],
            "min" : [
                -0.4950336217880249,
                0.3171951174736023,
                -0.5859360098838806
            ],
            "type" : "VEC3"
        },
        {
            "bufferView" : 9,
            "componentType" : 5126,
            "count" : 80,
            "type" : "VEC3"
        },
        {
            "bufferView" : 10,
            "componentType" : 5126,
            "count" : 80,
            "type" : "VEC2"
        },
        {
            "bufferView" : 11,
            "componentType" : 5123,
            "count" : 138,
            "type" : "SCALAR"
        }
    ],
    "bufferViews" : [
        {
            "buffer" : 0,
            "byteLength" : 14256,
            "byteOffset" : 0
        },
        {
            "buffer" : 0,
            "byteLength" : 14256,
            "byteOffset" : 14256
        },
        {
            "buffer" : 0,
            "byteLength" : 9504,
            "byteOffset" : 28512
        },
        {
            "buffer" : 0,
            "byteLength" : 3240,
            "byteOffset" : 38016
        },
        {
            "buffer" : 0,
            "byteLength" : 10176,
            "byteOffset" : 41256
        },
        {
            "buffer" : 0,
            "byteLength" : 10176,
            "byteOffset" : 51432
        },
        {
            "buffer" : 0,
            "byteLength" : 6784,
            "byteOffset" : 61608
        },
        {
            "buffer" : 0,
            "byteLength" : 2580,
            "byteOffset" : 68392
        },
        {
            "buffer" : 0,
            "byteLength" : 960,
            "byteOffset" : 70972
        },
        {
            "buffer" : 0,
            "byteLength" : 960,
            "byteOffset" : 71932
        },
        {
            "buffer" : 0,
            "byteLength" : 640,
            "byteOffset" : 72892
        },
        {
            "buffer" : 0,
            "byteLength" : 276,
            "byteOffset" : 73532
        }
    ],
    "buffers" : [
        {
            "byteLength" : 73808,
            "uri" : "data:application/octet-stream;base64,"
        }
    ]
}
